<svg width="46" height="36" viewBox="0 0 46 36" fill="none" xmlns="http://www.w3.org/2000/svg">
<path d="M20.72 22.44C21.1733 21.0267 21.4 19.68 21.4 18.4C21.4 15.9733 20.6267 14 19.08 12.48C18.1467 11.5467 17.0267 10.8267 15.72 10.32C14.4133 9.78667 13.0667 9.52 11.68 9.52C10.7467 9.52 9.84 9.64 8.96 9.88C9.28 11.0267 9.81333 12.0667 10.56 13C11.3067 13.9333 12.32 15.0267 13.6 16.28C15.2533 17.88 17.6267 19.9333 20.72 22.44ZM10.44 26.88C11.1333 27.1467 11.8933 27.28 12.72 27.28C13.8933 27.28 15.12 27.0133 16.4 26.48L14.76 25.08C12.92 23.5333 11.3867 22.1867 10.16 21.04C8.96 19.8667 7.86667 18.56 6.88 17.12C5.89333 15.6533 5.25333 14.1333 4.96 12.56C4.26667 13.8667 3.92 15.2933 3.92 16.84C3.92 18.2533 4.2 19.6533 4.76 21.04C5.32 22.4 6.09333 23.6 7.08 24.64C8.06667 25.68 9.18667 26.4267 10.44 26.88ZM24.4 25.12C25.1733 25.68 25.7333 26.1333 26.08 26.48C26.4267 26.8267 26.6 27.28 26.6 27.84C26.6 28.5867 26.28 29.32 25.64 30.04C25.0267 30.76 24.3467 31.12 23.6 31.12C23.1467 31.12 22.7467 31.0267 22.4 30.84C22.0533 30.6533 21.6533 30.3733 21.2 30C20.6133 29.52 20.1467 29.2133 19.8 29.08C19.5867 29.0267 19.4267 29 19.32 29C19.0267 29 18.7067 29.0933 18.36 29.28C18.04 29.44 17.6267 29.6933 17.12 30.04C16.4 30.4933 15.96 30.76 15.8 30.84C14.0667 31.6667 12.3467 32.08 10.64 32.08C8.48 32.08 6.54667 31.44 4.84 30.16C3.13333 28.88 1.86667 27.12 1.04 24.88C0.453333 23.3067 0.16 21.68 0.16 20C0.16 17.7333 0.666667 15.5467 1.68 13.44C2.72 11.3333 4.18667 9.46667 6.08 7.84C7.41333 6.72 8.69333 5.89333 9.92 5.36C11.1467 4.8 12.4933 4.52 13.96 4.52C15.6933 4.52 17.3867 4.86667 19.04 5.56C20.6933 6.25333 22.0533 7.21333 23.12 8.44C24.72 10.3067 25.52 12.6 25.52 15.32C25.52 15.9067 25.48 16.5067 25.4 17.12C25.1867 19.0667 24.7333 20.8 24.04 22.32C23.88 22.6667 23.7333 22.9867 23.6 23.28C23.4933 23.5467 23.44 23.76 23.44 23.92C23.44 24.1067 23.5067 24.2933 23.64 24.48C23.7733 24.64 24.0267 24.8533 24.4 25.12ZM33.7913 1.72C34.1913 1.4 34.6313 1.2 35.1113 1.12H35.2313C35.6579 1.12 35.9379 1.30666 36.0713 1.68C36.2313 1.97333 36.3379 2.37333 36.3913 2.88C36.4446 3.14667 36.4713 3.33333 36.4713 3.44C36.8446 4.74667 37.1779 5.89333 37.4713 6.88C37.7913 7.84 38.0579 8.65333 38.2713 9.32C38.4846 10.04 38.8179 11.1333 39.2713 12.6C39.7246 14.04 40.1113 15.32 40.4313 16.44C40.5379 16.7867 40.6046 17.0133 40.6313 17.12C40.6313 16.3733 40.6046 15.2533 40.5513 13.76L40.5113 12.08L40.4713 11.04C40.4446 9.94666 40.3913 9.04 40.3113 8.32C40.2579 7.6 40.1379 6.89333 39.9513 6.2C39.9513 5.50666 40.0579 4.89333 40.2713 4.36L40.7513 3.32C41.0446 2.76 41.4846 2.2 42.0713 1.64C42.4979 1.26666 42.9646 1.04 43.4713 0.96C43.9246 0.96 44.2713 1.16 44.5113 1.56C44.9113 2.6 45.1379 3.73333 45.1913 4.96C45.1913 5.70666 45.2046 6.25333 45.2313 6.6C45.2313 7.98666 45.2446 9.01333 45.2713 9.68C45.2713 11.1467 45.2446 13.32 45.1913 16.2C45.1913 17.6667 45.1113 19.84 44.9513 22.72L44.9113 23.56C44.8846 23.8533 44.8446 24.36 44.7913 25.08C44.7646 25.8 44.7113 26.44 44.6313 27C44.3913 28.7867 44.0979 30.2 43.7513 31.24C43.4579 32.0133 43.1913 32.6133 42.9513 33.04C42.6846 33.5467 42.2313 34.0933 41.5913 34.68C41.1379 35.08 40.6979 35.28 40.2713 35.28C40.1113 35.28 39.9513 35.24 39.7913 35.16C39.3646 34.9467 39.0046 34.3867 38.7113 33.48C38.4713 32.7333 38.2313 31.8533 37.9913 30.84C37.8313 30.0933 37.7246 29.5333 37.6713 29.16C37.3779 27.6667 37.1646 26.6533 37.0312 26.12C36.7379 24.6267 36.2446 22.4133 35.5513 19.48C34.6713 24.92 33.3113 29.4267 31.4713 33C31.2846 33.4 31.0179 33.7733 30.6713 34.12C30.3513 34.4667 30.0179 34.72 29.6712 34.88C29.4846 34.9867 29.2713 35.04 29.0313 35.04C28.8179 35.04 28.6579 35.0133 28.5513 34.96C28.2046 34.72 28.0313 34.3067 28.0313 33.72C28.0313 33.48 28.0446 33.3067 28.0713 33.2C28.2046 32.5333 28.4179 31.9467 28.7113 31.44L28.7913 31.28C29.2713 30.1867 29.6979 28.9867 30.0713 27.68C30.4979 25.8933 30.8313 24.0533 31.0713 22.16C31.3113 20.2667 31.5246 18.1067 31.7113 15.68C31.7646 14.3467 31.7913 13.3733 31.7913 12.76L31.7513 10.68C31.7513 10.2 31.7379 9.82666 31.7113 9.56C31.7113 9.37333 31.6979 9.14667 31.6713 8.88C31.6713 8.58666 31.6846 8.25333 31.7113 7.88C31.7113 6.97333 31.7246 6.26667 31.7513 5.76C31.8046 5.22667 31.9246 4.72 32.1113 4.24C32.5379 3.14666 33.0979 2.30666 33.7913 1.72Z" fill="#2ECC71"/>
</svg>
