<svg width="222" height="54" viewBox="0 0 222 54" fill="none" xmlns="http://www.w3.org/2000/svg">
<path
        d="M20.72 23.44C21.1733 22.0267 21.4 20.68 21.4 19.4C21.4 16.9733 20.6267 15 19.08 13.48C18.1467 12.5467 17.0267 11.8267 15.72 11.32C14.4133 10.7867 13.0667 10.52 11.68 10.52C10.7467 10.52 9.84 10.64 8.96 10.88C9.28 12.0267 9.81333 13.0667 10.56 14C11.3067 14.9333 12.32 16.0267 13.6 17.28C15.2533 18.88 17.6267 20.9333 20.72 23.44ZM10.44 27.88C11.1333 28.1467 11.8933 28.28 12.72 28.28C13.8933 28.28 15.12 28.0133 16.4 27.48L14.76 26.08C12.92 24.5333 11.3867 23.1867 10.16 22.04C8.96 20.8667 7.86667 19.56 6.88 18.12C5.89333 16.6533 5.25333 15.1333 4.96 13.56C4.26667 14.8667 3.92 16.2933 3.92 17.84C3.92 19.2533 4.2 20.6533 4.76 22.04C5.32 23.4 6.09333 24.6 7.08 25.64C8.06667 26.68 9.18667 27.4267 10.44 27.88ZM24.4 26.12C25.1733 26.68 25.7333 27.1333 26.08 27.48C26.4267 27.8267 26.6 28.28 26.6 28.84C26.6 29.5867 26.28 30.32 25.64 31.04C25.0267 31.76 24.3467 32.12 23.6 32.12C23.1467 32.12 22.7467 32.0267 22.4 31.84C22.0533 31.6533 21.6533 31.3733 21.2 31C20.6133 30.52 20.1467 30.2133 19.8 30.08C19.5867 30.0267 19.4267 30 19.32 30C19.0267 30 18.7067 30.0933 18.36 30.28C18.04 30.44 17.6267 30.6933 17.12 31.04C16.4 31.4933 15.96 31.76 15.8 31.84C14.0667 32.6667 12.3467 33.08 10.64 33.08C8.48 33.08 6.54667 32.44 4.84 31.16C3.13333 29.88 1.86667 28.12 1.04 25.88C0.453333 24.3067 0.16 22.68 0.16 21C0.16 18.7333 0.666667 16.5467 1.68 14.44C2.72 12.3333 4.18667 10.4667 6.08 8.84C7.41333 7.72 8.69333 6.89333 9.92 6.36C11.1467 5.8 12.4933 5.52 13.96 5.52C15.6933 5.52 17.3867 5.86667 19.04 6.56C20.6933 7.25333 22.0533 8.21333 23.12 9.44C24.72 11.3067 25.52 13.6 25.52 16.32C25.52 16.9067 25.48 17.5067 25.4 18.12C25.1867 20.0667 24.7333 21.8 24.04 23.32C23.88 23.6667 23.7333 23.9867 23.6 24.28C23.4933 24.5467 23.44 24.76 23.44 24.92C23.44 25.1067 23.5067 25.2933 23.64 25.48C23.7733 25.64 24.0267 25.8533 24.4 26.12ZM39.9513 13.08C39.9779 12.5467 40.3513 12.08 41.0713 11.68C41.8179 11.2533 42.5646 11.04 43.3113 11.04C43.7379 11.04 44.0846 11.1333 44.3513 11.32C44.6179 11.48 44.7379 11.7467 44.7113 12.12C44.6579 13.1333 44.6313 13.9467 44.6313 14.56C44.4979 18.0267 44.2579 20.9733 43.9113 23.4C43.5913 25.8267 42.8579 28.1067 41.7113 30.24C40.5646 32.3733 38.8579 33.7733 36.5913 34.44C35.8179 34.6533 35.0846 34.76 34.3913 34.76C32.6846 34.76 31.1779 34.2533 29.8713 33.24C28.5913 32.2267 27.8579 30.8533 27.6713 29.12C27.6179 28.4267 27.5913 27.9067 27.5913 27.56C27.5913 25.72 27.8713 23.84 28.4313 21.92C28.9913 20 29.8046 17.68 30.8713 14.96C31.1913 14.24 31.5513 13.32 31.9513 12.2C32.1113 11.7467 32.5113 11.3733 33.1513 11.08C33.8179 10.76 34.4713 10.6 35.1113 10.6C35.5379 10.6 35.8846 10.6933 36.1513 10.88C36.4179 11.04 36.5513 11.28 36.5513 11.6C36.5513 11.7067 36.5246 11.8667 36.4713 12.08C35.9379 13.6267 35.5246 14.7867 35.2313 15.56C34.4579 17.72 33.8579 19.5333 33.4313 21C33.0046 22.44 32.7113 23.92 32.5513 25.44C32.4979 26.08 32.4713 26.5867 32.4713 26.96C32.4713 28.5333 32.8579 29.6667 33.6313 30.36C33.8713 30.6 34.1913 30.8267 34.5913 31.04C34.9913 31.2267 35.3646 31.3333 35.7113 31.36L36.0313 31.44C36.0579 31.44 36.1113 31.4 36.1913 31.32C36.8579 30.8933 37.3913 30.1733 37.7913 29.16C38.2179 28.12 38.4979 27.2 38.6313 26.4C38.7646 25.6 38.9513 24.3333 39.1913 22.6C39.3779 21.1867 39.5246 19.64 39.6313 17.96C39.7646 16.28 39.8713 14.6533 39.9513 13.08ZM52.5956 22.44L52.2756 23.24L55.0756 25.6L54.7956 24.44C54.609 23.6933 54.2356 22.1067 53.6756 19.68L52.5956 22.44ZM57.1556 10.76C57.529 13.08 57.9956 15.44 58.5556 17.84C59.1423 20.2133 59.849 22.9467 60.6756 26.04C61.449 28.9733 61.9556 30.92 62.1956 31.88C62.2223 31.96 62.2356 32.08 62.2356 32.24C62.2356 32.88 61.8756 33.44 61.1556 33.92C60.4356 34.3733 59.689 34.6 58.9156 34.6C58.2756 34.6 57.7823 34.4267 57.4356 34.08C56.6623 33.2533 55.849 32.4667 54.9956 31.72C54.1423 30.9733 53.0223 30.0533 51.6356 28.96L50.3156 27.88C49.1956 30.28 48.329 32.0533 47.7156 33.2C47.529 33.6 47.0356 33.9733 46.2356 34.32C45.4623 34.64 44.7423 34.8 44.0756 34.8C43.329 34.8 42.9556 34.56 42.9556 34.08C42.9556 33.9467 42.9956 33.7867 43.0756 33.6C43.8756 31.6267 44.8223 29.36 45.9156 26.8L46.7556 24.76C46.089 24.0933 45.7556 23.76 45.7556 23.76C45.569 23.5733 45.4756 23.36 45.4756 23.12C45.4756 22.6667 45.769 22.24 46.3556 21.84C46.9423 21.4133 47.5956 21.1333 48.3156 21C49.5956 17.9333 50.7956 14.8133 51.9156 11.64C52.0223 11.2667 52.3556 10.9467 52.9156 10.68C53.5023 10.3867 54.1156 10.2 54.7556 10.12C55.209 9.98667 55.5956 9.92 55.9156 9.92C56.6623 9.92 57.0756 10.2 57.1556 10.76ZM68.1697 2.88C68.223 2.37333 68.6497 1.92 69.4497 1.52C70.2497 1.09333 71.0097 0.879999 71.7297 0.879999C72.583 0.879999 72.9964 1.2 72.9697 1.84C72.543 6.61333 71.8364 13.2 70.8497 21.6C70.2097 27.3333 69.7964 31.0533 69.6097 32.76C69.5564 33.32 69.1297 33.8267 68.3297 34.28C67.5564 34.7067 66.7964 34.92 66.0497 34.92C65.0097 34.92 64.5297 34.5333 64.6097 33.76C65.543 24.5867 66.7297 14.2933 68.1697 2.88ZM75.14 13.08C75.1667 12.5467 75.5533 12.08 76.3 11.68C77.0467 11.2533 77.7933 11.04 78.54 11.04C78.9667 11.04 79.3133 11.1333 79.58 11.32C79.8467 11.48 79.9667 11.7467 79.94 12.12L78.78 33.84C78.7533 34.4 78.3667 34.8933 77.62 35.32C76.8733 35.72 76.1267 35.92 75.38 35.92C74.3933 35.92 73.9133 35.5333 73.94 34.76L75.14 13.08ZM75.06 7.8C75.0067 8.17333 75.1 8.45333 75.34 8.64C75.6067 8.82667 75.9533 8.92 76.38 8.92C77.1 8.92 77.8333 8.72 78.58 8.32C79.3267 7.92 79.74 7.44 79.82 6.88C80.0333 5.54666 80.18 4.54666 80.26 3.88C80.3667 3.21333 79.9533 2.88 79.02 2.88C78.3 2.88 77.5533 3.08 76.78 3.48C76.0067 3.88 75.5933 4.33333 75.54 4.84L75.06 7.8ZM94.0669 10.76C94.6269 10.7067 95.0535 10.7733 95.3469 10.96C95.6669 11.1467 96.0002 11.5067 96.3469 12.04C96.5602 12.3867 96.6669 12.68 96.6669 12.92C96.6669 13.5067 96.2935 13.8533 95.5469 13.96L94.1469 14.12C92.8402 14.3067 92.1469 14.4 92.0669 14.4C91.6135 18.6667 91.2535 22.3733 90.9869 25.52C90.7202 28.6667 90.5469 31.7733 90.4669 34.84C90.4402 35.2133 90.2802 35.4933 89.9869 35.68C89.7202 35.8667 89.3602 35.96 88.9069 35.96C88.1069 35.96 87.3069 35.7467 86.5069 35.32C85.7335 34.8667 85.3602 34.36 85.3869 33.8C85.4669 30.9733 85.6269 28.0933 85.8669 25.16C86.1069 22.2 86.4269 18.7733 86.8269 14.88L84.3069 15.2C83.9335 15.2267 83.6402 15.2133 83.4269 15.16C83.2402 15.08 83.0535 14.92 82.8669 14.68C82.6802 14.44 82.4935 14.1733 82.3069 13.88C82.0935 13.5867 81.9869 13.2933 81.9869 13C81.9869 12.76 82.0802 12.5467 82.2669 12.36C82.4535 12.1733 82.7335 12.0533 83.1069 12C83.6935 11.92 84.3735 11.8267 85.1469 11.72L87.1869 11.44L87.9069 4.52C87.9869 3.77333 88.5335 3.4 89.5469 3.4C90.3469 3.4 91.1202 3.62666 91.8669 4.08C92.6402 4.50666 93.0002 5 92.9469 5.56L92.4269 10.92C93.1735 10.8667 93.7202 10.8133 94.0669 10.76ZM104.953 11.68C104.9 11.12 105.247 10.6267 105.993 10.2C106.767 9.74666 107.527 9.52 108.273 9.52C109.1 9.52 109.553 9.8 109.633 10.36C110.22 14.6267 110.673 18.2933 110.993 21.36C111.313 24.4267 111.473 27.4667 111.473 30.48C111.473 34.5333 111.153 38.12 110.513 41.24C110.007 43.72 109.273 45.9467 108.313 47.92C107.353 49.8933 106.033 51.4267 104.353 52.52C102.967 53.4 101.567 53.84 100.153 53.84C98.8468 53.84 97.5668 53.4933 96.3134 52.8C95.0601 52.1333 93.8868 51.2133 92.7934 50.04C92.5801 49.7733 92.4734 49.5467 92.4734 49.36C92.4734 48.8267 92.8601 48.32 93.6334 47.84C94.3801 47.3867 95.1401 47.16 95.9134 47.16C96.4468 47.16 96.8601 47.3067 97.1534 47.6C97.2868 47.7333 97.6068 48.0667 98.1134 48.6C98.6201 49.1333 99.1401 49.5867 99.6734 49.96C100.233 50.3333 100.74 50.52 101.193 50.52C101.433 50.52 101.607 50.4933 101.713 50.44C102.22 50.2533 102.66 49.8133 103.033 49.12C103.433 48.4267 103.753 47.7867 103.993 47.2C104.233 46.6133 104.38 46.2533 104.433 46.12C105.073 44.52 105.54 42.8267 105.833 41.04C106.127 39.28 106.327 37.3067 106.433 35.12C106.487 33.4133 106.513 32.12 106.513 31.24C105.82 32.4933 105.007 33.48 104.073 34.2C103.14 34.8933 102.007 35.24 100.673 35.24C98.7801 35.24 97.5401 34.4 96.9534 32.72C96.3934 31.0133 96.1001 28.9333 96.0734 26.48L96.0334 24.88C96.0334 20.72 96.4601 16.8133 97.3134 13.16C97.4201 12.6533 97.8734 12.2 98.6734 11.8C99.4734 11.4 100.233 11.2 100.953 11.2C101.327 11.2 101.62 11.28 101.833 11.44C102.047 11.6 102.127 11.8267 102.073 12.12C101.46 15.2133 101.073 18.56 100.913 22.16C100.86 23.28 100.833 24.1467 100.833 24.76C100.833 25.7733 100.9 26.9067 101.033 28.16C101.193 29.28 101.38 30.08 101.593 30.56L101.913 31.2C102.1 30.8533 102.353 30.3333 102.673 29.64C103.34 27.9333 103.873 25.88 104.273 23.48L104.633 21.52C105.14 19.1467 105.393 17.2667 105.393 15.88C105.393 15.1867 105.367 14.6667 105.313 14.32L104.953 11.68ZM132.151 2.72C132.551 2.4 132.991 2.2 133.471 2.12H133.591C134.017 2.12 134.297 2.30666 134.431 2.68C134.591 2.97333 134.697 3.37333 134.751 3.88C134.804 4.14667 134.831 4.33333 134.831 4.44C135.204 5.74667 135.537 6.89333 135.831 7.88C136.151 8.84 136.417 9.65333 136.631 10.32C136.844 11.04 137.177 12.1333 137.631 13.6C138.084 15.04 138.471 16.32 138.791 17.44C138.897 17.7867 138.964 18.0133 138.991 18.12C138.991 17.3733 138.964 16.2533 138.911 14.76L138.871 13.08L138.831 12.04C138.804 10.9467 138.751 10.04 138.671 9.32C138.617 8.6 138.497 7.89333 138.311 7.2C138.311 6.50666 138.417 5.89333 138.631 5.36L139.111 4.32C139.404 3.76 139.844 3.2 140.431 2.64C140.857 2.26666 141.324 2.04 141.831 1.96C142.284 1.96 142.631 2.16 142.871 2.56C143.271 3.6 143.497 4.73333 143.551 5.96C143.551 6.70666 143.564 7.25333 143.591 7.6C143.591 8.98666 143.604 10.0133 143.631 10.68C143.631 12.1467 143.604 14.32 143.551 17.2C143.551 18.6667 143.471 20.84 143.311 23.72L143.271 24.56C143.244 24.8533 143.204 25.36 143.151 26.08C143.124 26.8 143.071 27.44 142.991 28C142.751 29.7867 142.457 31.2 142.111 32.24C141.817 33.0133 141.551 33.6133 141.311 34.04C141.044 34.5467 140.591 35.0933 139.951 35.68C139.497 36.08 139.057 36.28 138.631 36.28C138.471 36.28 138.311 36.24 138.151 36.16C137.724 35.9467 137.364 35.3867 137.071 34.48C136.831 33.7333 136.591 32.8533 136.351 31.84C136.191 31.0933 136.084 30.5333 136.031 30.16C135.737 28.6667 135.524 27.6533 135.391 27.12C135.097 25.6267 134.604 23.4133 133.911 20.48C133.031 25.92 131.671 30.4267 129.831 34C129.644 34.4 129.377 34.7733 129.031 35.12C128.711 35.4667 128.377 35.72 128.031 35.88C127.844 35.9867 127.631 36.04 127.391 36.04C127.177 36.04 127.017 36.0133 126.911 35.96C126.564 35.72 126.391 35.3067 126.391 34.72C126.391 34.48 126.404 34.3067 126.431 34.2C126.564 33.5333 126.777 32.9467 127.071 32.44L127.151 32.28C127.631 31.1867 128.057 29.9867 128.431 28.68C128.857 26.8933 129.191 25.0533 129.431 23.16C129.671 21.2667 129.884 19.1067 130.071 16.68C130.124 15.3467 130.151 14.3733 130.151 13.76L130.111 11.68C130.111 11.2 130.097 10.8267 130.071 10.56C130.071 10.3733 130.057 10.1467 130.031 9.88C130.031 9.58666 130.044 9.25333 130.071 8.88C130.071 7.97333 130.084 7.26667 130.111 6.76C130.164 6.22667 130.284 5.72 130.471 5.24C130.897 4.14666 131.457 3.30666 132.151 2.72ZM162.529 30.36C162.929 30.4933 163.129 30.7333 163.129 31.08C163.129 31.5067 162.876 31.9733 162.369 32.48C161.809 33.04 161.089 33.32 160.209 33.32C159.783 33.32 159.423 33.2667 159.129 33.16C157.716 32.7067 156.436 32.48 155.289 32.48C153.289 32.48 151.249 33.12 149.169 34.4C148.823 34.64 148.396 34.84 147.889 35C147.409 35.1333 146.956 35.2 146.529 35.2C146.129 35.2 145.809 35.1333 145.569 35C145.329 34.84 145.209 34.6 145.209 34.28C145.209 34.0933 145.236 33.9333 145.289 33.8C146.063 31.64 146.676 29.6933 147.129 27.96C147.609 26.2267 147.929 24.4667 148.089 22.68C148.329 20.28 148.449 18.52 148.449 17.4C148.449 14.44 147.876 12.1733 146.729 10.6C146.596 10.44 146.529 10.2267 146.529 9.96C146.529 9.42667 146.903 8.93333 147.649 8.48C148.396 8 149.129 7.76 149.849 7.76C150.329 7.76 150.676 7.86667 150.889 8.08C151.236 8.21333 151.463 8.42667 151.569 8.72C152.236 10.48 153.156 11.9733 154.329 13.2C155.503 14.4 156.889 15 158.489 15C158.783 15 159.223 14.9467 159.809 14.84C160.183 14.7867 160.423 14.76 160.529 14.76C160.983 14.76 161.316 14.8667 161.529 15.08C161.769 15.2667 161.889 15.5333 161.889 15.88C161.889 16.2533 161.729 16.6267 161.409 17C161.116 17.3733 160.716 17.64 160.209 17.8C159.116 18.1733 158.023 18.36 156.929 18.36C155.623 18.36 154.369 18.0933 153.169 17.56C153.116 19.0533 153.049 20.1733 152.969 20.92L152.689 23.44C153.729 23.2533 154.769 23.0933 155.809 22.96L156.369 22.92C157.436 22.92 157.969 23.28 157.969 24C157.969 24.48 157.703 24.9067 157.169 25.28C156.636 25.6533 156.089 25.8933 155.529 26C154.703 26.16 153.569 26.3333 152.129 26.52C151.836 27.8267 151.516 29.0533 151.169 30.2C152.929 29.56 154.716 29.24 156.529 29.24C158.529 29.24 160.529 29.6133 162.529 30.36ZM184.308 10.6C184.761 10.6 185.135 10.7067 185.428 10.92C185.721 11.1333 185.868 11.3867 185.868 11.68C185.868 11.92 185.748 12.1867 185.508 12.48C185.561 12.4267 184.908 13.16 183.548 14.68C180.668 17.88 178.561 20.3333 177.228 22.04C179.015 24.76 181.041 27.44 183.308 30.08C183.495 30.2667 183.588 30.48 183.588 30.72C183.588 31.2533 183.175 31.7733 182.348 32.28C181.548 32.76 180.761 33 179.988 33C179.455 33 179.055 32.8533 178.788 32.56C176.948 30.4533 175.348 28.4267 173.988 26.48C172.975 27.92 171.481 30.1067 169.508 33.04C169.295 33.3333 168.881 33.5867 168.268 33.8C167.655 33.9867 167.041 34.08 166.428 34.08C165.975 34.08 165.601 34.0267 165.308 33.92C165.015 33.7867 164.868 33.6 164.868 33.36C164.868 33.2267 164.948 33.04 165.108 32.8C167.748 28.8533 170.001 25.6667 171.868 23.24C169.948 20.1733 168.321 17.0267 166.988 13.8C166.935 13.5867 166.908 13.44 166.908 13.36C166.908 12.8 167.295 12.2933 168.068 11.84C168.841 11.36 169.615 11.12 170.388 11.12C171.241 11.12 171.775 11.4 171.988 11.96C172.921 14.2 174.028 16.4933 175.308 18.84C177.495 16.2267 179.561 13.92 181.508 11.92C181.855 11.5467 182.281 11.24 182.788 11C183.321 10.7333 183.828 10.6 184.308 10.6ZM197.373 13.08C197.4 12.5467 197.773 12.08 198.493 11.68C199.24 11.2533 199.986 11.04 200.733 11.04C201.16 11.04 201.506 11.1333 201.773 11.32C202.04 11.48 202.16 11.7467 202.133 12.12C202.08 13.1333 202.053 13.9467 202.053 14.56C201.92 18.0267 201.68 20.9733 201.333 23.4C201.013 25.8267 200.28 28.1067 199.133 30.24C197.986 32.3733 196.28 33.7733 194.013 34.44C193.24 34.6533 192.506 34.76 191.813 34.76C190.106 34.76 188.6 34.2533 187.293 33.24C186.013 32.2267 185.28 30.8533 185.093 29.12C185.04 28.4267 185.013 27.9067 185.013 27.56C185.013 25.72 185.293 23.84 185.853 21.92C186.413 20 187.226 17.68 188.293 14.96C188.613 14.24 188.973 13.32 189.373 12.2C189.533 11.7467 189.933 11.3733 190.573 11.08C191.24 10.76 191.893 10.6 192.533 10.6C192.96 10.6 193.306 10.6933 193.573 10.88C193.84 11.04 193.973 11.28 193.973 11.6C193.973 11.7067 193.946 11.8667 193.893 12.08C193.36 13.6267 192.946 14.7867 192.653 15.56C191.88 17.72 191.28 19.5333 190.853 21C190.426 22.44 190.133 23.92 189.973 25.44C189.92 26.08 189.893 26.5867 189.893 26.96C189.893 28.5333 190.28 29.6667 191.053 30.36C191.293 30.6 191.613 30.8267 192.013 31.04C192.413 31.2267 192.786 31.3333 193.133 31.36L193.453 31.44C193.48 31.44 193.533 31.4 193.613 31.32C194.28 30.8933 194.813 30.1733 195.213 29.16C195.64 28.12 195.92 27.2 196.053 26.4C196.186 25.6 196.373 24.3333 196.613 22.6C196.8 21.1867 196.946 19.64 197.053 17.96C197.186 16.28 197.293 14.6533 197.373 13.08ZM216.276 17.12C215.77 16.6933 214.89 16.1333 213.636 15.44C212.41 14.72 211.463 14.36 210.796 14.36C210.263 14.36 209.996 14.6267 209.996 15.16C209.996 15.3467 210.063 15.6667 210.196 16.12C210.383 16.7333 210.796 17.32 211.436 17.88C212.076 18.4133 212.916 19.04 213.956 19.76C214.81 20.3467 215.356 20.7467 215.596 20.96C216.77 21.9733 217.703 22.8267 218.396 23.52C219.09 24.1867 219.716 24.9867 220.276 25.92C220.863 26.8267 221.156 27.76 221.156 28.72C221.156 29.36 220.996 30.0267 220.676 30.72C220.063 31.9733 219.05 32.9333 217.636 33.6C216.25 34.2667 214.77 34.6 213.196 34.6C212.663 34.6 212.13 34.56 211.596 34.48C207.97 33.8667 204.623 31.4533 201.556 27.24C201.396 27 201.316 26.76 201.316 26.52C201.316 25.9333 201.703 25.4 202.476 24.92C203.276 24.4133 204.063 24.16 204.836 24.16C205.423 24.16 205.85 24.3333 206.116 24.68C207.77 26.92 209.396 28.56 210.996 29.6C212.463 30.56 213.703 31.04 214.716 31.04C215.543 31.04 215.956 30.68 215.956 29.96C215.956 29.4533 215.756 28.8267 215.356 28.08C214.956 27.36 214.436 26.68 213.796 26.04C213.156 25.4 212.343 24.6667 211.356 23.84L210.276 22.92C210.17 22.8133 209.676 22.4267 208.796 21.76C208.076 21.2267 207.463 20.7333 206.956 20.28C206.45 19.8267 206.023 19.3333 205.676 18.8C205.223 18.08 204.996 17.3333 204.996 16.56C204.996 15.36 205.503 14.2667 206.516 13.28C207.556 12.2667 208.743 11.5733 210.076 11.2C210.93 10.96 211.743 10.84 212.516 10.84C213.956 10.84 215.343 11.1733 216.676 11.84C218.036 12.5067 219.41 13.4267 220.796 14.6C221.036 14.7867 221.156 15.0133 221.156 15.28C221.156 15.7867 220.743 16.28 219.916 16.76C219.09 17.24 218.276 17.48 217.476 17.48C216.943 17.48 216.543 17.36 216.276 17.12Z" fill="#ffff"/>
</svg>
